<?xml version="1.0" standalone="no"?>
<!DOCTYPE svg PUBLIC "-//W3C//DTD SVG 20010904//EN"
 "http://www.w3.org/TR/2001/REC-SVG-20010904/DTD/svg10.dtd">
<svg version="1.0" xmlns="http://www.w3.org/2000/svg"
 width="253.000000pt" height="256.000000pt" viewBox="0 0 253.000000 256.000000"
 preserveAspectRatio="xMidYMid meet">

<g transform="translate(0.000000,256.000000) scale(0.100000,-0.100000)"
fill="#000000" stroke="none">
<path d="M0 1280 l0 -1280 1265 0 1265 0 0 1280 0 1280 -1265 0 -1265 0 0
-1280z m935 407 c8 -19 15 -40 17 -48 2 -8 14 -17 28 -20 14 -4 -22 -7 -80 -7
l-105 -1 -60 54 -60 55 123 0 123 0 14 -33z m83 -155 c-16 -7 -16 -10 -3 -36
8 -15 15 -35 15 -42 0 -8 11 -15 28 -15 15 -1 -17 -5 -70 -10 -108 -9 -156
-26 -193 -71 -35 -42 -33 -88 6 -133 44 -49 104 -65 258 -66 69 -1 118 -3 109
-6 -16 -4 -15 -7 3 -39 11 -20 17 -39 14 -44 -3 -5 9 -11 27 -13 18 -2 -45 -5
-140 -5 -203 -2 -286 12 -359 61 -75 51 -106 97 -111 165 -11 156 138 257 383
260 28 0 42 -2 33 -6z m77 -202 c-16 -4 -25 -8 -18 -9 6 0 17 -18 23 -38 7
-21 22 -49 34 -63 20 -24 20 -24 0 -7 -16 13 -39 17 -98 17 -119 0 -168 38
-116 90 17 17 32 20 113 19 64 -1 83 -4 62 -9z m-75 -390 c0 -11 -4 -20 -10
-20 -5 0 -10 9 -10 20 0 11 5 20 10 20 6 0 10 -9 10 -20z m190 -25 c0 -9 10
-15 26 -15 14 0 23 -4 19 -10 -3 -5 -15 -10 -26 -10 -18 0 -20 -6 -17 -52 3
-46 6 -53 26 -56 26 -4 30 -22 4 -22 -39 0 -62 29 -62 77 0 32 -5 50 -17 59
-17 13 -17 13 0 14 9 0 17 7 17 15 0 8 7 15 15 15 8 0 15 -7 15 -15z m-365
-25 c-3 -5 -24 -10 -46 -10 -51 0 -52 -24 -1 -40 34 -11 62 -34 62 -51 0 -4
-7 -15 -16 -23 -17 -18 -99 -22 -109 -6 -4 6 11 10 39 10 71 0 73 32 4 56 -74
25 -58 74 24 74 30 0 47 -4 43 -10z m175 -65 c0 -43 -4 -75 -10 -75 -6 0 -10
32 -10 75 0 43 4 75 10 75 6 0 10 -32 10 -75z m498 63 c7 -7 12 -25 12 -40 0
-27 -1 -28 -56 -28 -52 0 -55 -1 -52 -22 3 -20 10 -23 56 -26 66 -4 68 -22 2
-22 -64 0 -90 23 -90 79 0 23 7 46 16 55 18 19 94 22 112 4z m257 2 c-3 -5
-24 -10 -46 -10 -59 0 -50 -19 26 -52 63 -28 36 -78 -42 -78 -56 0 -56 18 -1
22 60 4 65 32 8 49 -47 14 -68 42 -49 65 13 16 114 20 104 4z"/>
<path d="M1427 874 c-4 -4 -7 -16 -7 -26 0 -16 6 -19 43 -16 34 2 42 7 42 23
0 16 -8 21 -35 23 -20 2 -39 0 -43 -4z"/>
</g>
</svg>
